# xmcd
#
# Track frame offsets:
#	150
#	14730
#	28321
#	47147
#	69939
#	98115
#	132954
#	152610
#	177031
#	208147
#	221785
#	250723
#
# Disc length: 3672 seconds
#
# Revision: 0
# Processed by: cddbd v1.5.2PL0 Copyright (c) Steve Scherf et al.
# Submitted via: EZCDAudioConverter 1.3.3.1
#
DISCID=aa0e560c
DTITLE=JP and The Seeger Session Band - How Can A Poor Man ...
DYEAR=1900
DGENRE=
TTITLE0=Old Dan Tucker
TTITLE1=Pack a bal of cotton
TTITLE2=How can a poor man stand such times and live
TTITLE3=Blinded by the light
TTITLE4=Keep your eyes on the prize
TTITLE5=My Oklahoma home
TTITLE6=Love at the common people
TTITLE7=When the saits go marching in
TTITLE8=O Mary don't you weep
TTITLE9=This little light of mine
TTITLE10=Pay me my money down
TTITLE11=American land
EXTD=
EXTT0=
EXTT1=
EXTT2=
EXTT3=
EXTT4=
EXTT5=
EXTT6=
EXTT7=
EXTT8=
EXTT9=
EXTT10=
EXTT11=
PLAYORDER=
